<svg width="30" height="30" viewBox="0 0 30 30" fill="none" xmlns="http://www.w3.org/2000/svg">
<path d="M23.5379 0.625977H6.28607C3.1101 0.625977 0.535461 3.20061 0.535461 6.37659V23.6284C0.535461 26.8044 3.1101 29.379 6.28607 29.379H23.5379C26.7139 29.379 29.2885 26.8044 29.2885 23.6284V6.37659C29.2885 3.20061 26.7139 0.625977 23.5379 0.625977Z" fill="#2B4089"/>
<path d="M21.3814 10.9591C21.3814 12.8945 18.485 14.4634 14.912 14.4634C11.339 14.4634 8.44257 12.8945 8.44257 10.9591C8.44257 9.02374 11.339 7.45483 14.912 7.45483C18.485 7.45483 21.3814 9.02374 21.3814 10.9591Z" fill="white"/>
<path d="M14.912 15.5416C16.8422 15.5416 18.6431 15.1201 20.0001 14.385C20.4961 14.1163 20.968 13.7835 21.3633 13.3899C21.3753 13.4773 21.3814 13.5656 21.3814 13.6546C21.3814 15.59 18.485 17.1589 14.912 17.1589C11.339 17.1589 8.44257 15.59 8.44257 13.6546C8.44257 13.5656 8.44868 13.4773 8.46075 13.3899C8.85603 13.7835 9.32787 14.1163 9.82386 14.385C11.1809 15.1201 12.9818 15.5416 14.912 15.5416Z" fill="white"/>
<path d="M14.912 18.2371C16.8422 18.2371 18.6431 17.8157 20.0001 17.0806C20.4961 16.8119 20.968 16.4791 21.3633 16.0854C21.3753 16.1729 21.3814 16.2611 21.3814 16.3502C21.3814 18.2856 18.485 19.8545 14.912 19.8545C11.339 19.8545 8.44257 18.2856 8.44257 16.3502C8.44257 16.2611 8.44868 16.1729 8.46075 16.0854C8.85603 16.4791 9.32787 16.8119 9.82386 17.0806C11.1809 17.8157 12.9818 18.2371 14.912 18.2371Z" fill="white"/>
<path d="M14.912 20.9327C16.8422 20.9327 18.6431 20.5112 20.0001 19.7762C20.4961 19.5075 20.968 19.1746 21.3633 18.781C21.3753 18.8684 21.3814 18.9567 21.3814 19.0458C21.3814 20.9811 18.485 22.55 14.912 22.55C11.339 22.55 8.44257 20.9811 8.44257 19.0458C8.44257 18.9567 8.44868 18.8684 8.46075 18.781C8.85603 19.1746 9.32787 19.5075 9.82386 19.7762C11.1809 20.5112 12.9818 20.9327 14.912 20.9327Z" fill="white"/>
</svg>
