<svg width="36" height="32" viewBox="0 0 36 32" fill="none" xmlns="http://www.w3.org/2000/svg">
<path fill-rule="evenodd" clip-rule="evenodd" d="M0.293518 3.23454C0.293518 1.50275 1.6973 0.098877 3.42918 0.098877H32.2773C34.0092 0.098877 35.413 1.50275 35.413 3.23454V19.54C35.413 21.2718 34.0092 22.6757 32.2773 22.6757H3.42918C1.6973 22.6757 0.293518 21.2718 0.293518 19.54V3.23454ZM11.5819 11.3873C11.5819 7.92369 14.3895 5.11594 17.8532 5.11594C21.317 5.11594 24.1246 7.92369 24.1246 11.3873C24.1246 14.8509 21.317 17.6586 17.8532 17.6586C14.3895 17.6586 11.5819 14.8509 11.5819 11.3873ZM29.1416 10.133C28.4493 10.133 27.8874 10.6945 27.8874 11.3873V11.3998C27.8874 12.0926 28.4493 12.6541 29.1416 12.6541H29.1547C29.847 12.6541 30.409 12.0926 30.409 11.3998V11.3873C30.409 10.6945 29.847 10.133 29.1547 10.133H29.1416ZM5.31058 11.3873C5.31058 10.6945 5.8725 10.133 6.56485 10.133H6.5779C7.27025 10.133 7.83215 10.6945 7.83215 11.3873V11.3998C7.83215 12.0926 7.27025 12.6541 6.5779 12.6541H6.56485C5.8725 12.6541 5.31058 12.0926 5.31058 11.3998V11.3873ZM1.54779 25.1843C0.855423 25.1843 0.293518 25.7458 0.293518 26.4386C0.293518 27.1313 0.855423 27.6929 1.54779 27.6929C10.5785 27.6929 19.3253 28.9007 27.6365 31.1629C29.6273 31.7048 31.6502 30.2295 31.6502 28.1195V26.4386C31.6502 25.7458 31.0883 25.1843 30.3959 25.1843H1.54779ZM14.0905 11.3873C14.0905 9.30914 15.7752 7.62451 17.8533 7.62451C19.9313 7.62451 21.6161 9.30914 21.6161 11.3873C21.6161 13.4655 19.9313 15.1501 17.8533 15.1501C15.7752 15.1501 14.0905 13.4655 14.0905 11.3873Z" fill="white"/>
</svg>
