<svg width="38" height="35" viewBox="0 0 38 35" fill="none" xmlns="http://www.w3.org/2000/svg">
<path fill-rule="evenodd" clip-rule="evenodd" d="M14.1118 3.45042C12.3799 3.45042 10.9762 4.8542 10.9762 6.58609C10.9762 8.31798 12.3799 9.72176 14.1118 9.72176H17.2475V17.2474H4.07768C2.34579 17.2474 0.942017 15.8436 0.942017 14.1117V12.8574C0.942017 11.1255 2.34579 9.72176 4.07768 9.72176H9.41785C8.81781 8.82471 8.46762 7.74603 8.46762 6.58609C8.46762 3.46849 10.9942 0.941895 14.1118 0.941895C15.8848 0.941895 17.4672 1.75967 18.5017 3.03802C19.5363 1.75967 21.1187 0.941895 22.8917 0.941895C26.0093 0.941895 28.5359 3.46849 28.5359 6.58609C28.5359 7.74603 28.1857 8.82471 27.5856 9.72176H34.1801C35.912 9.72176 37.3157 11.1255 37.3157 12.8574V14.1117C37.3157 15.8436 35.912 17.2474 34.1801 17.2474H19.756V9.72176H22.8917C24.6236 9.72176 26.0273 8.31798 26.0273 6.58609C26.0273 4.8542 24.6236 3.45042 22.8917 3.45042C21.1598 3.45042 19.756 4.8542 19.756 6.58609V9.72176H17.2475V6.58609C17.2475 4.8542 15.8437 3.45042 14.1118 3.45042ZM17.2474 19.7559H3.4505V31.0443C3.4505 33.1223 5.13522 34.8071 7.2133 34.8071H17.2474V19.7559ZM19.756 34.8071V19.7559H34.8072V31.0443C34.8072 33.1223 33.1225 34.8071 31.0444 34.8071H19.756Z" fill="white"/>
</svg>
