<svg width="28" height="37" viewBox="0 0 28 37" fill="none" xmlns="http://www.w3.org/2000/svg">
<path fill-rule="evenodd" clip-rule="evenodd" d="M8.8362 0.941895H3.192C1.46011 0.941895 0.0563354 2.34567 0.0563354 4.07756V32.9257C0.0563354 34.6576 1.46011 36.0613 3.192 36.0613H24.5145C26.2464 36.0613 27.6502 34.6576 27.6502 32.9257V19.7559C27.6502 16.2921 24.8427 13.4846 21.3788 13.4846H18.2432C16.5113 13.4846 15.1075 12.0808 15.1075 10.3489V7.21323C15.1075 3.74945 12.3 0.941895 8.8362 0.941895ZM8.8362 26.0272C9.52855 26.0272 10.0905 26.5891 10.0905 27.2815V28.5358C10.0905 29.2281 9.52855 29.79 8.8362 29.79C8.14384 29.79 7.58194 29.2281 7.58194 28.5358V27.2815C7.58194 26.5891 8.14384 26.0272 8.8362 26.0272ZM15.1075 23.5187C15.1075 22.8263 14.5456 22.2644 13.8533 22.2644C13.1609 22.2644 12.599 22.8263 12.599 23.5187V28.5358C12.599 29.2281 13.1609 29.79 13.8533 29.79C14.5456 29.79 15.1075 29.2281 15.1075 28.5358V23.5187ZM18.8703 18.5016C19.5627 18.5016 20.1246 19.0635 20.1246 19.7559V28.5358C20.1246 29.2281 19.5627 29.79 18.8703 29.79C18.178 29.79 17.6161 29.2281 17.6161 28.5358V19.7559C17.6161 19.0635 18.178 18.5016 18.8703 18.5016ZM15.4778 1.4707C16.8103 3.00993 17.6161 5.01778 17.6161 7.21324V10.3489C17.6161 10.6951 17.897 10.976 18.2432 10.976H21.3788C23.5743 10.976 25.5822 11.7818 27.1214 13.1143C25.6373 7.42998 21.1621 2.95476 15.4778 1.4707Z" fill="white"/>
</svg>
