<svg width="33" height="37" viewBox="0 0 33 37" fill="none" xmlns="http://www.w3.org/2000/svg">
<path fill-rule="evenodd" clip-rule="evenodd" d="M8.62457 8.46749V9.72176H5.30137C3.69671 9.72176 2.35093 10.9329 2.18296 12.5293L0.0704791 32.5976C-0.124384 34.4489 1.32725 36.0613 3.18898 36.0613H29.1117C30.9733 36.0613 32.425 34.4489 32.2301 32.5976L30.1177 12.5293C29.9496 10.9329 28.6039 9.72176 26.9992 9.72176H23.6758V8.46749C23.6758 4.31136 20.3064 0.941895 16.1502 0.941895C11.9939 0.941895 8.62457 4.31136 8.62457 8.46749ZM16.1502 3.45043C13.3793 3.45043 11.1331 5.69707 11.1331 8.46749V9.72176H21.1672V8.46749C21.1672 5.69707 18.921 3.45043 16.1502 3.45043ZM11.1331 17.2474C11.1331 20.0178 13.3793 22.2644 16.1502 22.2644C18.921 22.2644 21.1672 20.0178 21.1672 17.2474V15.9931C21.1672 15.3007 21.7287 14.7388 22.4215 14.7388C23.1143 14.7388 23.6758 15.3007 23.6758 15.9931V17.2474C23.6758 21.4035 20.3064 24.773 16.1502 24.773C11.9939 24.773 8.62457 21.4035 8.62457 17.2474V15.9931C8.62457 15.3007 9.18608 14.7388 9.87884 14.7388C10.5716 14.7388 11.1331 15.3007 11.1331 15.9931V17.2474Z" fill="white"/>
</svg>
