<svg width="37" height="26" viewBox="0 0 37 26" fill="none" xmlns="http://www.w3.org/2000/svg">
<path fill-rule="evenodd" clip-rule="evenodd" d="M0.942017 3.74309C0.942017 2.0113 2.34579 0.607422 4.07768 0.607422H32.9258C34.6577 0.607422 36.0615 2.0113 36.0615 3.74309V8.8042C36.0615 9.25193 35.8227 9.66573 35.4353 9.8899C34.3075 10.5424 33.5529 11.7589 33.5529 13.1501C33.5529 14.5413 34.3075 15.7578 35.4353 16.4103C35.8227 16.6344 36.0615 17.0482 36.0615 17.496V22.5571C36.0615 24.2889 34.6577 25.6927 32.9258 25.6927H4.07768C2.34579 25.6927 0.942017 24.2889 0.942017 22.5571V17.496C0.942017 17.0482 1.18082 16.6344 1.56814 16.4103C2.69598 15.7578 3.45055 14.5413 3.45055 13.1501C3.45055 11.7589 2.69598 10.5424 1.56814 9.8899C1.18082 9.66573 0.942017 9.25193 0.942017 8.8042V3.74309ZM26.0273 1.86169C26.7197 1.86169 27.2816 2.4232 27.2816 3.11595V4.37022C27.2816 5.06298 26.7197 5.62449 26.0273 5.62449C25.335 5.62449 24.7731 5.06298 24.7731 4.37022V3.11595C24.7731 2.4232 25.335 1.86169 26.0273 1.86169ZM27.2816 9.38729C27.2816 8.69453 26.7197 8.13302 26.0273 8.13302C25.335 8.13302 24.7731 8.69453 24.7731 9.38729V10.6416C24.7731 11.3343 25.335 11.8958 26.0273 11.8958C26.7197 11.8958 27.2816 11.3343 27.2816 10.6416V9.38729ZM26.0273 14.4044C26.7197 14.4044 27.2816 14.9659 27.2816 15.6586V16.9129C27.2816 17.6056 26.7197 18.1672 26.0273 18.1672C25.335 18.1672 24.7731 17.6056 24.7731 16.9129V15.6586C24.7731 14.9659 25.335 14.4044 26.0273 14.4044ZM27.2816 21.9299C27.2816 21.2372 26.7197 20.6757 26.0273 20.6757C25.335 20.6757 24.7731 21.2372 24.7731 21.9299V23.1842C24.7731 23.877 25.335 24.4385 26.0273 24.4385C26.7197 24.4385 27.2816 23.877 27.2816 23.1842V21.9299ZM8.46761 13.1501C8.46761 12.4573 9.02953 11.8958 9.72188 11.8958H18.5017C19.1941 11.8958 19.756 12.4573 19.756 13.1501C19.756 13.8428 19.1941 14.4044 18.5017 14.4044H9.72188C9.02953 14.4044 8.46761 13.8428 8.46761 13.1501ZM9.72188 16.9129C9.02953 16.9129 8.46761 17.4744 8.46761 18.1672C8.46761 18.8599 9.02953 19.4214 9.72188 19.4214H14.7389C15.4313 19.4214 15.9932 18.8599 15.9932 18.1672C15.9932 17.4744 15.4313 16.9129 14.7389 16.9129H9.72188Z" fill="white"/>
</svg>
