<svg width="34" height="31" viewBox="0 0 34 31" fill="none" xmlns="http://www.w3.org/2000/svg">
<path fill-rule="evenodd" clip-rule="evenodd" d="M0.883362 4.48921C2.20997 3.31803 3.9528 2.60741 5.8616 2.60741H28.4384C30.3472 2.60741 32.09 3.31803 33.4167 4.48921C33.1083 2.01419 30.997 0.098877 28.4384 0.098877H5.8616C3.30299 0.098877 1.19171 2.01419 0.883362 4.48921ZM0.883362 9.5063C2.20997 8.33512 3.9528 7.6245 5.8616 7.6245H28.4384C30.3472 7.6245 32.09 8.33512 33.4167 9.5063C33.1083 7.03128 30.997 5.11597 28.4384 5.11597H5.8616C3.30299 5.11597 1.19171 7.03128 0.883362 9.5063ZM0.844727 15.1501C0.844727 12.3793 3.09097 10.1331 5.86179 10.1331H12.1331C12.8259 10.1331 13.3874 10.6946 13.3874 11.3873C13.3874 13.4655 15.072 15.1501 17.1502 15.1501C19.2284 15.1501 20.913 13.4655 20.913 11.3873C20.913 10.6946 21.4745 10.1331 22.1673 10.1331H28.4386C31.2094 10.1331 33.4556 12.3793 33.4556 15.1501V25.1842C33.4556 27.9551 31.2094 30.2013 28.4386 30.2013H5.86179C3.09097 30.2013 0.844727 27.9551 0.844727 25.1842V15.1501Z" fill="white"/>
</svg>
