<svg width="33" height="32" viewBox="0 0 33 32" fill="none" xmlns="http://www.w3.org/2000/svg">
<path d="M26.379 0.13208H6.25183C3.07586 0.13208 0.501221 2.70672 0.501221 5.88269V26.0098C0.501221 29.1858 3.07586 31.7604 6.25183 31.7604H26.379C29.5549 31.7604 32.1296 29.1858 32.1296 26.0098V5.88269C32.1296 2.70672 29.5549 0.13208 26.379 0.13208Z" fill="#2B892E"/>
<path d="M16.3154 12.7114C15.4222 12.7114 14.6981 13.4353 14.6981 14.3288C14.6981 15.2223 15.4222 15.9461 16.3154 15.9461C17.2086 15.9461 17.9328 15.2223 17.9328 14.3288C17.9328 13.4353 17.2086 12.7114 16.3154 12.7114Z" fill="white"/>
<path fill-rule="evenodd" clip-rule="evenodd" d="M8.7677 10.8246C8.7677 10.0799 9.37115 9.47681 10.1155 9.47681H22.5153C23.2596 9.47681 23.8631 10.0799 23.8631 10.8246V17.8332C23.8631 18.5779 23.2596 19.181 22.5153 19.181H10.1155C9.37115 19.181 8.7677 18.5779 8.7677 17.8332V10.8246ZM13.6198 14.3289C13.6198 12.8402 14.8266 11.6333 16.3154 11.6333C17.8041 11.6333 19.011 12.8402 19.011 14.3289C19.011 15.8176 17.8041 17.0245 16.3154 17.0245C14.8266 17.0245 13.6198 15.8176 13.6198 14.3289ZM21.1675 13.7898C20.8697 13.7898 20.6283 14.0313 20.6283 14.3289V14.3346C20.6283 14.6322 20.8697 14.8738 21.1675 14.8738H21.1728C21.4706 14.8738 21.712 14.6322 21.712 14.3346V14.3289C21.712 14.0313 21.4706 13.7898 21.1728 13.7898H21.1675ZM10.9242 14.3289C10.9242 14.0313 11.1656 13.7898 11.4633 13.7898H11.4687C11.7664 13.7898 12.0078 14.0313 12.0078 14.3289V14.3346C12.0078 14.6322 11.7664 14.8738 11.4687 14.8738H11.4633C11.1656 14.8738 10.9242 14.6322 10.9242 14.3346V14.3289Z" fill="white"/>
<path d="M9.30682 20.2593C9.00908 20.2593 8.7677 20.5008 8.7677 20.7984C8.7677 21.096 9.00908 21.3375 9.30682 21.3375C13.1885 21.3375 16.9481 21.8565 20.5204 22.8291C21.3762 23.062 22.2457 22.428 22.2457 21.5208V20.7984C22.2457 20.5008 22.0043 20.2593 21.7066 20.2593H9.30682Z" fill="white"/>
</svg>
