<svg width="30" height="30" viewBox="0 0 30 30" fill="none" xmlns="http://www.w3.org/2000/svg">
<path d="M23.5379 0.513428H6.28607C3.1101 0.513428 0.535461 3.08806 0.535461 6.26404V23.5159C0.535461 26.6918 3.1101 29.2665 6.28607 29.2665H23.5379C26.7139 29.2665 29.2885 26.6918 29.2885 23.5159V6.26404C29.2885 3.08806 26.7139 0.513428 23.5379 0.513428Z" fill="#D06604"/>
<path d="M10.3295 8.95972C9.2874 8.95972 8.44257 9.80434 8.44257 10.8466C8.44257 11.8889 9.2874 12.7336 10.3295 12.7336H19.4945C20.5366 12.7336 21.3814 11.8889 21.3814 10.8466C21.3814 9.80434 20.5366 8.95972 19.4945 8.95972H10.3295Z" fill="white"/>
<path d="M8.98169 14.3508C8.68395 14.3508 8.44257 14.5924 8.44257 14.8899C8.44257 15.1875 8.68395 15.4291 8.98169 15.4291H20.8423C21.1401 15.4291 21.3814 15.1875 21.3814 14.8899C21.3814 14.5924 21.1401 14.3508 20.8423 14.3508H8.98169Z" fill="white"/>
<path d="M8.44257 17.5855C8.44257 17.2879 8.68395 17.0464 8.98169 17.0464H20.8423C21.1401 17.0464 21.3814 17.2879 21.3814 17.5855C21.3814 17.8831 21.1401 18.1246 20.8423 18.1246H8.98169C8.68395 18.1246 8.44257 17.8831 8.44257 17.5855Z" fill="white"/>
<path d="M8.98169 19.7422C8.68395 19.7422 8.44257 19.9837 8.44257 20.2813C8.44257 20.5789 8.68395 20.8204 8.98169 20.8204H20.8423C21.1401 20.8204 21.3814 20.5789 21.3814 20.2813C21.3814 19.9837 21.1401 19.7422 20.8423 19.7422H8.98169Z" fill="white"/>
</svg>
